v -16.2958 -12.1158 3.6131
vn 0.237094 -0.0350975 0.970853
vt 0.489382 1
v -15.3719 -5.7882 2.6658
vn 0.177712 0.170844 0.969139
vt 0.980706 0.787212
v -12.7178 -9.502 2.8338
vn 0.270019 -0.0171917 0.962701
vt 0.489382 0.7816
v -11.4543 4.8049 -8.1353
vn -0.786528 0.533079 0.31177
vt 0.0339408 0.792971
v -10.8317 -2.3835 1.0203
vn 0.024573 0.19439 0.980617
vt 0.980706 0.505612
v -10.2749 -13.1143 1.1398
vn 0.426726 -0.131053 0.894835
vt 0.0184226 0.792971
v -9.5004 2.7886 -3.6622
vn -0.621627 0.319243 0.715306
vt 0.0290408 0.501871
v -9.0904 8.0087 -7.6497
vn -0.779566 0.586616 0.21945
vt 0.4916 0.7816
v -8.4904 7.9627 -11.898
vn -0.775048 0.621128 -0.116188
vt 0.4916 1
v -8.1049 -6.1324 1.829
vn 0.232183 -0.0782247 0.969522
vt 0.489382 0.5
v -7.0769 5.9206 -2.9397
vn -0.568577 0.359288 0.740022
vt 0.4916 0.5
v -6.5292 11.0814 -7.4241
vn -0.739243 0.592711 0.319708
vt 0.969224 0.787212
v -5.845 1.1565 0.7002
vn 0.0863749 0.132806 0.987371
vt 0.972306 0.191612
v -5.7724 -9.6915 -0.8372
vn 0.411557 -0.31682 0.854544
vt 0.0129227 0.501871
v -5.5476 -0.6412 -0.9841
vn -0.342726 0.101267 0.933961
vt 0.0290408 0.202671
v -4.5454 9.0322 -2.8642
vn -0.536892 0.416362 0.73375
vt 0.969224 0.505612
v -3.6564 -4.0576 0.9773
vn 0.0233642 0.0814732 0.996402
vt 0.961324 0.189212
v -3.6268 -10.0552 0.836
vn -0.0235836 0.0516715 0.998386
vt 0.969024 0.505512
v -3.4749 -15.618 1.7786
vn 0.0546024 0.145228 0.98789
vt 0.969037 0.789211
v -3.203 -2.5516 0.7614
vn 0.282428 -0.076313 0.956248
vt 0.489382 0.2008
v -3.039 2.4429 -0.459
vn -0.262009 0.0961016 0.960269
vt 0.4916 0.2008
v -0.8494 4.6929 -3.0983
vn -0.679811 0.365469 0.635837
vt 0.0121227 0.202671
v -0.7505 -6.1684 -1.4603
vn 0.395613 -0.301154 0.867639
vt 0.0129227 0.202671
v -0.5566 5.5797 -0.2439
vn -0.282685 0.171319 0.94379
vt 0.961524 0.191612
v 0.0148 -0.0646 -0.057
vn -0.450137 0.237774 0.860721
vt 0.493182 0.0044
v 0.0148 -0.0646 -0.057
vn -0.136975 -0.00801502 0.990542
vt 0.491 0.0044
v 0.0148 -0.0646 -0.057
vn 0.0929672 0.280681 0.955288
vt 0.490524 0.0247233
v 0.0148 -0.0646 -0.057
vn 0.241511 0.210678 0.947252
vt 0.49 0.0007
v 0.0148 -0.0646 -0.057
vn 0.296189 -0.069757 0.952579
vt 0.488682 0.0044
v 0.0612 -4.0241 0.8118
vn 0.234036 0.122052 0.964536
vt 0.4906 0.1985
v 0.1597 -9.9766 0.9911
vn 0.225324 0.0535695 0.97281
vt 0.4906 0.4999
v 0.2525 -15.578 1.5667
vn 0.202885 0.129087 0.970657
vt 0.490612 0.7836
v 0.3244 -19.9229 2.0131
vn 0.199593 0.103415 0.974407
vt 0.490629 1.0036
v 1.5098 -4.4158 0.9368
vn 0.155016 0.195053 0.968465
vt 0.971248 0.206535
v 1.7931 3.5492 -0.1253
vn -0.465666 0.205498 0.86077
vt 0.493882 0.2008
v 2.1927 9.7186 -3.9946
vn -0.759205 0.398201 0.514823
vt 0.0121227 0.501871
v 2.9992 -1.55 0.089
vn 0.151569 0.250379 0.95621
vt 0.491224 0.215223
v 3.6244 -4.0915 -0.8507
vn 0.433743 0.0833592 0.897172
vt 0.0271408 0.200371
v 3.6255 -10.1078 -0.8443
vn 0.445049 0.0690603 0.892839
vt 0.0271408 0.501771
v 3.808 -15.6505 0.2882
vn 0.336704 0.165208 0.927004
vt 0.0321038 0.794972
v 4.2231 15.2316 -2.5331
vn -0.724951 0.154887 0.67116
vt 0.0177226 0.792971
v 4.3879 8.9959 0.2168
vn -0.468397 0.230634 0.852885
vt 0.493882 0.5
v 4.5028 1.2245 -1.0139
vn 0.20291 0.279389 0.938493
vt 0.017865 0.217094
v 5.1426 1.7397 0.8892
vn -0.177223 0.0935655 0.979713
vt 0.981806 0.191612
v 5.8535 -6.8771 0.4124
vn 0.330418 0.0683521 0.941356
vt 0.979548 0.511235
v 6.8298 14.1215 0.5387
vn -0.499887 0.129024 0.856426
vt 0.493882 0.7816
v 7.4004 -4.0032 -0.3189
vn 0.364273 0.133693 0.921646
vt 0.491224 0.505623
v 8.0539 6.8885 0.355
vn -0.0632884 0.0252018 0.997677
vt 0.990606 0.505612
v 8.7239 18.0972 0.7884
vn -0.47659 0.17292 0.861952
vt 0.493882 1
v 8.8064 -1.2317 -1.5871
vn 0.400914 0.195664 0.894977
vt 0.017865 0.507494
v 9.441 -9.3531 -1.3683
vn 0.559352 -0.0597634 0.826773
vt 0.979548 0.784435
v 10.2246 12.2695 1.4281
vn -0.270179 -0.0331462 0.96224
vt 0.990606 0.787212
v 10.9787 -6.5084 -2.203
vn 0.622857 -0.0551063 0.780392
vt 0.491224 0.778823
v 12.3937 -3.6895 -3.313
vn 0.594085 0.0184544 0.804191
vt 0.023165 0.789894
v 12.8457 -8.3466 -4.8012
vn 0.74249 -0.163904 0.649495
vt 0.491224 0.990823
f 30/30/30 17/17/17 31/31/31
f 18/18/18 31/31/31 17/17/17
f 38/38/38 31/31/31 39/39/39
f 31/31/31 18/18/18 32/32/32
f 19/19/19 32/32/32 18/18/18
f 39/39/39 32/32/32 40/40/40
f 30/30/30 38/38/38 28/28/28
f 30/30/30 28/28/28 17/17/17
f 32/32/32 19/19/19 33/33/33
f 32/32/32 33/33/33 40/40/40
f 39/39/39 31/31/31 32/32/32
f 38/38/38 30/30/30 31/31/31
f 37/37/37 34/34/34 47/47/47
f 45/45/45 47/47/47 34/34/34
f 43/43/43 47/47/47 50/50/50
f 47/47/47 45/45/45 53/53/53
f 51/51/51 53/53/53 45/45/45
f 50/50/50 53/53/53 54/54/54
f 37/37/37 43/43/43 27/27/27
f 37/37/37 27/27/27 34/34/34
f 53/53/53 51/51/51 55/55/55
f 53/53/53 55/55/55 54/54/54
f 50/50/50 47/47/47 53/53/53
f 43/43/43 37/37/37 47/47/47
f 20/20/20 13/13/13 10/10/10
f 5/5/5 10/10/10 13/13/13
f 23/23/23 10/10/10 14/14/14
f 10/10/10 5/5/5 3/3/3
f 2/2/2 3/3/3 5/5/5
f 14/14/14 3/3/3 6/6/6
f 20/20/20 23/23/23 29/29/29
f 20/20/20 29/29/29 13/13/13
f 3/3/3 2/2/2 1/1/1
f 3/3/3 1/1/1 6/6/6
f 14/14/14 10/10/10 3/3/3
f 23/23/23 20/20/20 10/10/10
f 35/35/35 44/44/44 42/42/42
f 48/48/48 42/42/42 44/44/44
f 22/22/22 42/42/42 36/36/36
f 42/42/42 48/48/48 46/46/46
f 52/52/52 46/46/46 48/48/48
f 36/36/36 46/46/46 41/41/41
f 35/35/35 22/22/22 25/25/25
f 35/35/35 25/25/25 44/44/44
f 46/46/46 52/52/52 49/49/49
f 46/46/46 49/49/49 41/41/41
f 36/36/36 42/42/42 46/46/46
f 22/22/22 35/35/35 42/42/42
f 21/21/21 24/24/24 11/11/11
f 16/16/16 11/11/11 24/24/24
f 15/15/15 11/11/11 7/7/7
f 11/11/11 16/16/16 8/8/8
f 12/12/12 8/8/8 16/16/16
f 7/7/7 8/8/8 4/4/4
f 21/21/21 15/15/15 26/26/26
f 21/21/21 26/26/26 24/24/24
f 8/8/8 12/12/12 9/9/9
f 8/8/8 9/9/9 4/4/4
f 7/7/7 11/11/11 8/8/8
f 15/15/15 21/21/21 11/11/11
